<svg xmlns="http://www.w3.org/2000/svg" width="61.334" height="58.459" viewBox="0 0 61.334 58.459">
  <g id="agent_4_" data-name="agent (4)" transform="translate(0 -12)">
    <g id="Group_2823" data-name="Group 2823" transform="translate(0 53.21)">
      <g id="Group_2822" data-name="Group 2822">
        <path id="Path_2712" data-name="Path 2712" d="M8.625,356.008A8.634,8.634,0,0,0,0,364.633a.958.958,0,1,0,1.917,0,6.717,6.717,0,0,1,6.708-6.708.958.958,0,1,0,0-1.917Z" transform="translate(0 -356.008)" fill="#1ac7cf"/>
      </g>
    </g>
    <g id="Group_2825" data-name="Group 2825" transform="translate(7.667 53.21)">
      <g id="Group_2824" data-name="Group 2824">
        <path id="Path_2713" data-name="Path 2713" d="M70.708,356.009h-5.75a.958.958,0,1,0,0,1.917h5.75a.958.958,0,1,0,0-1.917Z" transform="translate(-64 -356.008)" fill="#1ac7cf"/>
      </g>
    </g>
    <g id="Group_2827" data-name="Group 2827" transform="translate(26.834 53.209)">
      <g id="Group_2826" data-name="Group 2826">
        <path id="Path_2714" data-name="Path 2714" d="M230.708,356l-5.75,0a.958.958,0,1,0,0,1.917l5.75,0a.958.958,0,0,0,0-1.917Z" transform="translate(-224 -356)" fill="#1ac7cf"/>
      </g>
    </g>
    <g id="Group_2829" data-name="Group 2829" transform="translate(0 60.876)">
      <g id="Group_2828" data-name="Group 2828">
        <path id="Path_2715" data-name="Path 2715" d="M1.917,420.966a.958.958,0,1,0-1.917,0v6.707a.958.958,0,1,0,1.917,0Z" transform="translate(0 -420.008)" fill="#1ac7cf"/>
      </g>
    </g>
    <g id="Group_2831" data-name="Group 2831" transform="translate(0.001 67.584)">
      <g id="Group_2830" data-name="Group 2830">
        <path id="Path_2716" data-name="Path 2716" d="M1.925,476.96v0a.958.958,0,1,0-1.917,0,1.919,1.919,0,0,0,1.917,1.917.957.957,0,1,0,0-1.915Z" transform="translate(-0.008 -476)" fill="#1ac7cf"/>
      </g>
    </g>
    <g id="Group_2833" data-name="Group 2833" transform="translate(0.959 68.542)">
      <g id="Group_2832" data-name="Group 2832">
        <path id="Path_2717" data-name="Path 2717" d="M43.466,484H8.966a.958.958,0,1,0,0,1.917h34.5a.958.958,0,0,0,0-1.917Z" transform="translate(-8.008 -484)" fill="#1ac7cf"/>
      </g>
    </g>
    <g id="Group_2835" data-name="Group 2835" transform="translate(13.417 47.718)">
      <g id="Group_2834" data-name="Group 2834">
        <path id="Path_2718" data-name="Path 2718" d="M112.958,310.168a.957.957,0,0,0-.958.958v5.492a.958.958,0,0,0,1.917,0v-5.492A.957.957,0,0,0,112.958,310.168Z" transform="translate(-112 -310.168)" fill="#1ac7cf"/>
      </g>
    </g>
    <g id="Group_2837" data-name="Group 2837" transform="translate(26.834 47.718)">
      <g id="Group_2836" data-name="Group 2836">
        <path id="Path_2719" data-name="Path 2719" d="M224.958,310.168a.957.957,0,0,0-.958.958v5.49a.958.958,0,0,0,1.917,0v-5.49A.957.957,0,0,0,224.958,310.168Z" transform="translate(-224 -310.168)" fill="#1ac7cf"/>
      </g>
    </g>
    <g id="Group_2839" data-name="Group 2839" transform="translate(5.75 35.001)">
      <g id="Group_2838" data-name="Group 2838">
        <path id="Path_2720" data-name="Path 2720" d="M77.709,204.008a.957.957,0,0,0-.958.958,13.417,13.417,0,0,1-26.834,0,.958.958,0,1,0-1.917,0,15.333,15.333,0,0,0,30.667,0A.957.957,0,0,0,77.709,204.008Z" transform="translate(-48 -204.008)" fill="#1ac7cf"/>
      </g>
    </g>
    <g id="Group_2841" data-name="Group 2841" transform="translate(5.75 24.458)">
      <g id="Group_2840" data-name="Group 2840">
        <path id="Path_2721" data-name="Path 2721" d="M48.958,116a.957.957,0,0,0-.958.958V127.5a.958.958,0,1,0,1.917,0V116.958A.957.957,0,0,0,48.958,116Z" transform="translate(-48 -116)" fill="#1ac7cf"/>
      </g>
    </g>
    <g id="Group_2843" data-name="Group 2843" transform="translate(34.5 23.502)">
      <g id="Group_2842" data-name="Group 2842">
        <path id="Path_2722" data-name="Path 2722" d="M288.958,108.016a.957.957,0,0,0-.958.958v11.5a.958.958,0,1,0,1.917,0v-11.5A.957.957,0,0,0,288.958,108.016Z" transform="translate(-288 -108.016)" fill="#1ac7cf"/>
      </g>
    </g>
    <g id="Group_2845" data-name="Group 2845" transform="translate(27.792 16.794)">
      <g id="Group_2844" data-name="Group 2844">
        <path id="Path_2723" data-name="Path 2723" d="M232.958,52.016a.958.958,0,0,0,0,1.917,5.756,5.756,0,0,1,5.75,5.75.958.958,0,0,0,1.917,0A7.676,7.676,0,0,0,232.958,52.016Z" transform="translate(-232 -52.016)" fill="#1ac7cf"/>
      </g>
    </g>
    <g id="Group_2847" data-name="Group 2847" transform="translate(27.792 12)">
      <g id="Group_2846" data-name="Group 2846">
        <path id="Path_2724" data-name="Path 2724" d="M232.958,12a.957.957,0,0,0-.958.958v4.794a.958.958,0,1,0,1.917,0V12.958A.957.957,0,0,0,232.958,12Z" transform="translate(-232 -12)" fill="#1ac7cf"/>
      </g>
    </g>
    <g id="Group_2849" data-name="Group 2849" transform="translate(18.209 12)">
      <g id="Group_2848" data-name="Group 2848">
        <path id="Path_2725" data-name="Path 2725" d="M162.542,12h-9.583a.958.958,0,0,0,0,1.917h9.583a.958.958,0,1,0,0-1.917Z" transform="translate(-152 -12)" fill="#1ac7cf"/>
      </g>
    </g>
    <g id="Group_2851" data-name="Group 2851" transform="translate(5.75 12)">
      <g id="Group_2850" data-name="Group 2850">
        <path id="Path_2726" data-name="Path 2726" d="M61.417,12A13.432,13.432,0,0,0,48,25.417a.958.958,0,0,0,1.917,0,11.513,11.513,0,0,1,11.5-11.5.958.958,0,0,0,0-1.917Z" transform="translate(-48 -12)" fill="#1ac7cf"/>
      </g>
    </g>
    <g id="Group_2853" data-name="Group 2853" transform="translate(30.667 25.417)">
      <g id="Group_2852" data-name="Group 2852">
        <path id="Path_2727" data-name="Path 2727" d="M261.467,128.112l-3.833-3.833a.958.958,0,0,0-1.355,1.355l3.833,3.833a.958.958,0,0,0,1.355-1.355Z" transform="translate(-255.998 -123.998)" fill="#1ac7cf"/>
      </g>
    </g>
    <g id="Group_2855" data-name="Group 2855" transform="translate(9.583 25.417)">
      <g id="Group_2854" data-name="Group 2854">
        <path id="Path_2728" data-name="Path 2728" d="M102.863,124.465a.959.959,0,0,0-1.314-.331A22.076,22.076,0,0,1,91.5,126.873a22.068,22.068,0,0,1-10.05-2.74.959.959,0,0,0-.985,1.645A23.66,23.66,0,0,0,91.5,128.79a23.667,23.667,0,0,0,11.034-3.011A.959.959,0,0,0,102.863,124.465Z" transform="translate(-80 -123.998)" fill="#1ac7cf"/>
      </g>
    </g>
    <g id="Group_2857" data-name="Group 2857" transform="translate(5.75 25.417)">
      <g id="Group_2856" data-name="Group 2856">
        <path id="Path_2729" data-name="Path 2729" d="M53.467,124.279a.957.957,0,0,0-1.355,0l-3.833,3.833a.958.958,0,1,0,1.355,1.355l3.833-3.833A.957.957,0,0,0,53.467,124.279Z" transform="translate(-47.998 -123.998)" fill="#1ac7cf"/>
      </g>
    </g>
    <g id="Group_2859" data-name="Group 2859" transform="translate(13.417 53.211)">
      <g id="Group_2858" data-name="Group 2858">
        <path id="Path_2730" data-name="Path 2730" d="M116.363,358.093l-2.875-1.915a.958.958,0,0,0-1.064,1.595l2.875,1.915a.958.958,0,1,0,1.064-1.595Z" transform="translate(-111.997 -356.017)" fill="#1ac7cf"/>
      </g>
    </g>
    <g id="Group_2861" data-name="Group 2861" transform="translate(16.291 53.208)">
      <g id="Group_2860" data-name="Group 2860">
        <path id="Path_2731" data-name="Path 2731" d="M141.643,356.526a.96.96,0,0,0-1.286-.428l-3.833,1.917a.959.959,0,1,0,.858,1.714l3.833-1.917A.959.959,0,0,0,141.643,356.526Z" transform="translate(-135.993 -355.997)" fill="#1ac7cf"/>
      </g>
    </g>
    <g id="Group_2863" data-name="Group 2863" transform="translate(23.958 53.211)">
      <g id="Group_2862" data-name="Group 2862">
        <path id="Path_2732" data-name="Path 2732" d="M204.629,356.443a.959.959,0,0,0-1.329-.265l-2.875,1.915a.958.958,0,0,0,1.064,1.595l2.875-1.915A.958.958,0,0,0,204.629,356.443Z" transform="translate(-199.998 -356.017)" fill="#1ac7cf"/>
      </g>
    </g>
    <g id="Group_2865" data-name="Group 2865" transform="translate(20.125 53.209)">
      <g id="Group_2864" data-name="Group 2864">
        <path id="Path_2733" data-name="Path 2733" d="M173.222,358.022l-3.833-1.917a.959.959,0,0,0-.858,1.714l3.833,1.917a.959.959,0,0,0,.858-1.714Z" transform="translate(-168.001 -356.005)" fill="#1ac7cf"/>
      </g>
    </g>
    <g id="Group_2867" data-name="Group 2867" transform="translate(20.149 58.959)">
      <g id="Group_2866" data-name="Group 2866">
        <path id="Path_2734" data-name="Path 2734" d="M169.163,404h-.011a.964.964,0,1,0,.011,0Z" transform="translate(-168.2 -404)" fill="#1ac7cf"/>
      </g>
    </g>
    <g id="Group_2869" data-name="Group 2869" transform="translate(20.149 63.751)">
      <g id="Group_2868" data-name="Group 2868">
        <path id="Path_2735" data-name="Path 2735" d="M169.163,444h-.011a.964.964,0,1,0,.011,0Z" transform="translate(-168.2 -444)" fill="#1ac7cf"/>
      </g>
    </g>
    <g id="Group_2871" data-name="Group 2871" transform="translate(32.584 43.624)">
      <g id="Group_2870" data-name="Group 2870">
        <path id="Path_2736" data-name="Path 2736" d="M287.208,276.475a.956.956,0,0,0-1.307-.356l-13.417,7.667a.958.958,0,0,0,.476,1.79.947.947,0,0,0,.474-.127l13.417-7.667A.958.958,0,0,0,287.208,276.475Z" transform="translate(-272.001 -275.991)" fill="#1ac7cf"/>
      </g>
    </g>
    <g id="Group_2873" data-name="Group 2873" transform="translate(46.001 43.624)">
      <g id="Group_2872" data-name="Group 2872">
        <path id="Path_2737" data-name="Path 2737" d="M398.852,283.785l-13.417-7.667a.958.958,0,1,0-.951,1.664l13.417,7.667a.957.957,0,0,0,1.307-.356A.958.958,0,0,0,398.852,283.785Z" transform="translate(-384.001 -275.991)" fill="#1ac7cf"/>
      </g>
    </g>
    <g id="Group_2875" data-name="Group 2875" transform="translate(32.584 47.458)">
      <g id="Group_2874" data-name="Group 2874">
        <path id="Path_2738" data-name="Path 2738" d="M287.208,308.478a.957.957,0,0,0-1.307-.356l-13.417,7.667a.958.958,0,0,0,.476,1.79.947.947,0,0,0,.474-.126l13.417-7.667A.958.958,0,0,0,287.208,308.478Z" transform="translate(-272.001 -307.994)" fill="#1ac7cf"/>
      </g>
    </g>
    <g id="Group_2877" data-name="Group 2877" transform="translate(46.001 47.458)">
      <g id="Group_2876" data-name="Group 2876">
        <path id="Path_2739" data-name="Path 2739" d="M398.852,315.788l-13.417-7.667a.958.958,0,1,0-.951,1.664l13.417,7.667a.957.957,0,0,0,1.307-.357A.958.958,0,0,0,398.852,315.788Z" transform="translate(-384.001 -307.994)" fill="#1ac7cf"/>
      </g>
    </g>
    <g id="Group_2879" data-name="Group 2879" transform="translate(32.584 51.292)">
      <g id="Group_2878" data-name="Group 2878">
        <path id="Path_2740" data-name="Path 2740" d="M272.958,340a.957.957,0,0,0-.958.958v3.833a.958.958,0,1,0,1.917,0v-3.833A.957.957,0,0,0,272.958,340Z" transform="translate(-272 -340)" fill="#1ac7cf"/>
      </g>
    </g>
    <g id="Group_2881" data-name="Group 2881" transform="translate(59.417 51.292)">
      <g id="Group_2880" data-name="Group 2880">
        <path id="Path_2741" data-name="Path 2741" d="M496.958,340a.957.957,0,0,0-.958.958v3.833a.958.958,0,1,0,1.917,0v-3.833A.957.957,0,0,0,496.958,340Z" transform="translate(-496 -340)" fill="#1ac7cf"/>
      </g>
    </g>
    <g id="Group_2883" data-name="Group 2883" transform="translate(34.5 54.029)">
      <g id="Group_2882" data-name="Group 2882">
        <path id="Path_2742" data-name="Path 2742" d="M288.958,362.848a.957.957,0,0,0-.958.958v14.513a.958.958,0,1,0,1.917,0V363.806A.957.957,0,0,0,288.958,362.848Z" transform="translate(-288 -362.848)" fill="#1ac7cf"/>
      </g>
    </g>
    <g id="Group_2885" data-name="Group 2885" transform="translate(34.5 68.542)">
      <g id="Group_2884" data-name="Group 2884">
        <path id="Path_2743" data-name="Path 2743" d="M311.959,484h-23a.958.958,0,0,0,0,1.917h23a.958.958,0,0,0,0-1.917Z" transform="translate(-288 -484)" fill="#1ac7cf"/>
      </g>
    </g>
    <g id="Group_2887" data-name="Group 2887" transform="translate(57.5 54.029)">
      <g id="Group_2886" data-name="Group 2886">
        <path id="Path_2744" data-name="Path 2744" d="M481.909,363.806a.958.958,0,1,0-1.917,0v14.513a.958.958,0,1,0,1.917,0Z" transform="translate(-479.992 -362.848)" fill="#1ac7cf"/>
      </g>
    </g>
    <g id="Group_2889" data-name="Group 2889" transform="translate(43.125 58)">
      <g id="Group_2888" data-name="Group 2888">
        <path id="Path_2745" data-name="Path 2745" d="M366.708,396h-5.75a.957.957,0,0,0-.958.958V407.5a.957.957,0,0,0,.958.958h5.75a.957.957,0,0,0,.958-.958V396.958A.957.957,0,0,0,366.708,396Zm-.958,10.542h-3.833v-8.625h3.833Z" transform="translate(-360 -396)" fill="#1ac7cf"/>
      </g>
    </g>
    <g id="Group_2891" data-name="Group 2891" transform="translate(45.066 62.792)">
      <g id="Group_2890" data-name="Group 2890">
        <path id="Path_2746" data-name="Path 2746" d="M377.163,436h-.011a.964.964,0,1,0,.011,0Z" transform="translate(-376.2 -436)" fill="#1ac7cf"/>
      </g>
    </g>
  </g>
</svg>
