<svg xmlns="http://www.w3.org/2000/svg" width="61.333" height="60.001" viewBox="0 0 61.333 60.001">
  <g id="buy-home" transform="translate(-2 -2.773)">
    <path id="Path_2701" data-name="Path 2701" d="M27.483,54.5a.876.876,0,0,1-.018-1.753l5.793-.124h.018a.876.876,0,1,1,.018,1.753L27.5,54.5Z" transform="translate(-3.042 -6.164)" fill="#1ac7cf"/>
    <path id="Path_2702" data-name="Path 2702" d="M35.409,67.6a5.521,5.521,0,0,1-1.721-.275l-19.2-6.31a10.3,10.3,0,0,0-2.307-.473.876.876,0,0,1-.8-.948.864.864,0,0,1,.947-.8,12.117,12.117,0,0,1,2.7.553l19.205,6.31a3.722,3.722,0,0,0,3.359-.526L61.826,47.583a2.234,2.234,0,0,0-2.55-3.667L38.956,57.289a.876.876,0,0,1-.944.012l-7.079-4.4a.876.876,0,0,1,.438-1.621l11.61-.257A2.062,2.062,0,0,0,45,49.142,1.165,1.165,0,0,0,45,48.974a2.052,2.052,0,0,0-1.828-2.046L21.525,44.441a14.536,14.536,0,0,0-6.548.776l-2.42.892a.876.876,0,1,1-.606-1.645l2.425-.894a16.316,16.316,0,0,1,7.347-.87L43.37,45.186a3.8,3.8,0,0,1,3.385,3.788,3.059,3.059,0,0,1-.018.356,3.758,3.758,0,0,1-.18.86l11.763-7.741a3.986,3.986,0,0,1,4.531,6.558L38.629,66.554A5.45,5.45,0,0,1,35.409,67.6ZM34.357,52.97l4.1,2.547,4.149-2.729Z" transform="translate(-1.159 -4.826)" fill="#1ac7cf"/>
    <path id="Path_2703" data-name="Path 2703" d="M48.258,47.02a.876.876,0,0,1-.334-1.686l8.106-3.359a4.583,4.583,0,0,1,5.333,1.388l.5.627a.876.876,0,0,1-1.376,1.086l-.5-.627a2.822,2.822,0,0,0-3.285-.855l-8.108,3.356A.876.876,0,0,1,48.258,47.02Z" transform="translate(-5.612 -4.805)" fill="#1ac7cf"/>
    <path id="Path_2704" data-name="Path 2704" d="M9.343,64.712H4.629A2.629,2.629,0,0,1,2,62.083v-19.1a2.629,2.629,0,0,1,2.629-2.629H9.343a2.629,2.629,0,0,1,2.629,2.629v19.1A2.629,2.629,0,0,1,9.343,64.712ZM4.629,42.11a.876.876,0,0,0-.876.876v19.1a.876.876,0,0,0,.876.876H9.343a.876.876,0,0,0,.876-.876v-19.1a.876.876,0,0,0-.876-.876Z" transform="translate(0 -4.648)" fill="#1ac7cf"/>
    <path id="Path_2705" data-name="Path 2705" d="M49.535,33.888H28.042a.876.876,0,0,1-.876-.876V20.774H23.993a.876.876,0,0,1-.648-1.466l14.8-16.261a.9.9,0,0,1,1.3,0L54.232,19.308a.876.876,0,0,1-.648,1.466H50.412V33.011a.876.876,0,0,1-.876.876ZM28.919,32.135h19.74V19.9a.876.876,0,0,1,.876-.876H51.6L38.789,4.939,25.976,19.021h2.066a.876.876,0,0,1,.876.876Z" transform="translate(-2.611 0)" fill="#1ac7cf"/>
    <path id="Path_2706" data-name="Path 2706" d="M35.3,30.171a.876.876,0,0,1-.62-1.5L44.15,19.2a.876.876,0,1,1,1.239,1.239l-9.471,9.471a.876.876,0,0,1-.62.257Z" transform="translate(-4.009 -2)" fill="#1ac7cf"/>
    <path id="Path_2707" data-name="Path 2707" d="M36.235,23.128a2.637,2.637,0,1,1,1.866-.771,2.637,2.637,0,0,1-1.866.771Zm0-3.523a.885.885,0,1,0,.627.263.885.885,0,0,0-.627-.263Z" transform="translate(-3.908 -1.865)" fill="#1ac7cf"/>
    <path id="Path_2708" data-name="Path 2708" d="M44.942,31.837a2.64,2.64,0,1,1,1.866-.773,2.64,2.64,0,0,1-1.866.773Zm0-3.524a.885.885,0,0,0-.626,1.512.906.906,0,0,0,1.252,0,.885.885,0,0,0-.627-1.511Z" transform="translate(-4.984 -2.941)" fill="#1ac7cf"/>
  </g>
</svg>
