<svg xmlns="http://www.w3.org/2000/svg" width="92" height="92" viewBox="0 0 92 92">
  <g id="Group_3192" data-name="Group 3192" transform="translate(-502 -670)">
    <circle id="Ellipse_112" data-name="Ellipse 112" cx="46" cy="46" r="46" transform="translate(502 670)" fill="#ff5d5d"/>
    <g id="Group_3191" data-name="Group 3191" transform="translate(531.336 699.346)">
      <path id="Path_2939" data-name="Path 2939" d="M23.426,21.614,37.889,7.151a1.282,1.282,0,0,0-1.812-1.812L21.614,19.8,7.151,5.338a1.319,1.319,0,0,0-1.812,0,1.251,1.251,0,0,0,0,1.812L19.8,21.614,5.338,36.076a1.276,1.276,0,0,0,.888,2.182,1.2,1.2,0,0,0,.888-.37l14.5-14.463L36.076,37.889a1.262,1.262,0,0,0,.888.37,1.2,1.2,0,0,0,.888-.37,1.251,1.251,0,0,0,0-1.812Z" transform="translate(-4.95 -4.95)" fill="#fff" stroke="#fff" stroke-width="2"/>
    </g>
  </g>
</svg>
