<svg xmlns="http://www.w3.org/2000/svg" width="77.412" height="60.824" viewBox="0 0 77.412 60.824">
  <g id="card" transform="translate(-32 -80)">
    <path id="Path_2783" data-name="Path 2783" d="M80.518,176.845c.3.238,7.391,5.832,16.07,5.832s15.772-5.594,16.07-5.832a1.382,1.382,0,0,0,.518-1.079c0-7.935-4.772-14.685-11.37-17.059a8.294,8.294,0,1,0-10.436,0C84.772,161.081,80,167.83,80,175.765A1.382,1.382,0,0,0,80.518,176.845Zm10.541-24.58a5.529,5.529,0,1,1,5.529,5.529A5.529,5.529,0,0,1,91.059,152.265Zm5.529,8.294c7.413,0,13.482,6.452,13.81,14.519-1.721,1.216-7.38,4.834-13.81,4.834s-12.089-3.618-13.81-4.834C83.107,167.011,89.175,160.559,96.588,160.559Z" transform="translate(-39.706 -52.912)" fill="#1ac7cf"/>
    <path id="Path_2784" data-name="Path 2784" d="M38.912,140.824H102.5a6.92,6.92,0,0,0,6.912-6.912v-47A6.92,6.92,0,0,0,102.5,80H38.912A6.92,6.92,0,0,0,32,86.912v47a6.92,6.92,0,0,0,6.912,6.912ZM34.765,86.912a4.152,4.152,0,0,1,4.147-4.147H102.5a4.152,4.152,0,0,1,4.147,4.147v47a4.152,4.152,0,0,1-4.147,4.147H38.912a4.152,4.152,0,0,1-4.147-4.147Z" transform="translate(0)" fill="#1ac7cf"/>
    <path id="Path_2785" data-name="Path 2785" d="M305.382,178.765h19.353a1.382,1.382,0,0,0,0-2.765H305.382a1.382,1.382,0,1,0,0,2.765Z" transform="translate(-225 -79.412)" fill="#1ac7cf"/>
    <path id="Path_2786" data-name="Path 2786" d="M305.382,226.765h19.353a1.382,1.382,0,0,0,0-2.765H305.382a1.382,1.382,0,1,0,0,2.765Z" transform="translate(-225 -119.117)" fill="#1ac7cf"/>
    <path id="Path_2787" data-name="Path 2787" d="M305.382,274.765h19.353a1.382,1.382,0,0,0,0-2.765H305.382a1.382,1.382,0,1,0,0,2.765Z" transform="translate(-225 -158.823)" fill="#1ac7cf"/>
    <path id="Path_2788" data-name="Path 2788" d="M305.382,322.765h19.353a1.382,1.382,0,0,0,0-2.765H305.382a1.382,1.382,0,1,0,0,2.765Z" transform="translate(-225 -198.529)" fill="#1ac7cf"/>
  </g>
</svg>
