<svg xmlns="http://www.w3.org/2000/svg" width="60.804" height="60.825" viewBox="0 0 60.804 60.825">
  <g id="customer-service" transform="translate(-0.088 0)">
    <path id="Path_2747" data-name="Path 2747" d="M58.34,27.306a27.817,27.817,0,0,0-3.8-13.467A11.543,11.543,0,0,0,38.182,1.2,27.436,27.436,0,0,0,13.592,5.758a.891.891,0,0,0,1.084,1.414,26.043,26.043,0,0,1,21.54-4.737,11.616,11.616,0,0,0-1.893,1.852A23.983,23.983,0,0,0,6.646,26.555a7.072,7.072,0,0,0-2.19.208A25.584,25.584,0,0,1,10.72,10.916.891.891,0,0,0,9.391,9.73,27.448,27.448,0,0,0,2.653,27.6,5.924,5.924,0,0,0,.088,32.481v8.607c0,3.8,3.239,6.015,6.748,5.926A3.368,3.368,0,0,0,13.4,45.973V27.29A3.381,3.381,0,0,0,8.7,24.2,22.2,22.2,0,0,1,33.208,5.927a11.583,11.583,0,0,0,1.974,13.8v2.419a.891.891,0,0,0,1.237.82l2.168-.916a11.588,11.588,0,0,0,12.541-2.125A21.854,21.854,0,0,1,52.3,24.212a3.381,3.381,0,0,0-4.725,3.078V45.973a3.377,3.377,0,0,0,4.992,2.945c0,.787-.019,1.574-.05,2.353a5.7,5.7,0,0,1-4.689,5.108,25.192,25.192,0,0,1-2.819.093,3.454,3.454,0,0,0-3.327-2.542h-4.73a3.448,3.448,0,0,0,0,6.9h4.729a3.454,3.454,0,0,0,3.335-2.572,18.089,18.089,0,0,0,3.067-.111A7.54,7.54,0,0,0,54.345,51.4c0-.012,0-.024,0-.035.062-1.55.015-3.115,0-4.652a6.06,6.06,0,0,0,6.547-5.926V32.175a5.924,5.924,0,0,0-2.552-4.87ZM1.869,41.088V32.481a4.284,4.284,0,0,1,4.739-4.145v16.9A4.281,4.281,0,0,1,1.869,41.088Zm8.167-15.381A1.586,1.586,0,0,1,11.62,27.29V45.973a1.584,1.584,0,0,1-3.168,0V27.29a1.586,1.586,0,0,1,1.584-1.584ZM41.686,59.044H36.957a1.667,1.667,0,1,1,0-3.333h4.729A1.667,1.667,0,0,1,41.686,59.044ZM56.525,26.457a7.072,7.072,0,0,0-2.192-.208,23.671,23.671,0,0,0-1.882-7.792,11.52,11.52,0,0,0,1.339-2.271A26.044,26.044,0,0,1,56.525,26.457Zm-13.264-5.2A9.638,9.638,0,0,1,39,20.277a.891.891,0,0,0-.738-.02l-1.3.547V19.348a.891.891,0,0,0-.288-.656A9.751,9.751,0,0,1,43.262,1.8C56.17,2.336,56.167,20.727,43.262,21.26ZM59.111,40.782a4.3,4.3,0,0,1-4.786,4.145q-.017-1.436-.016-2.872a.891.891,0,0,0-1.781,0v3.917a1.584,1.584,0,1,1-3.168,0V27.29a1.584,1.584,0,0,1,3.168,0V37.314a.891.891,0,0,0,1.781,0V28.03a4.3,4.3,0,0,1,4.8,4.145Z" transform="translate(0 0)" fill="#1ac7cf"/>
    <path id="Path_2748" data-name="Path 2748" d="M164.938,224.593a.891.891,0,0,0,1.237-.82v-2.908c8.533-8.3,2.579-22.958-9.341-22.942a13.374,13.374,0,1,0,5.492,25.568Zm-3.021-2.878a11.593,11.593,0,1,1-5.082-22.011c10.5,0,15.573,13.033,7.847,20.123a.891.891,0,0,0-.288.656v1.948l-1.739-.735A.891.891,0,0,0,161.917,221.715Z" transform="translate(-126.345 -174.417)" fill="#1ac7cf"/>
    <path id="Path_2749" data-name="Path 2749" d="M229.618,262.737h4.765a.891.891,0,0,0,0-1.781h-4.765A.891.891,0,0,0,229.618,262.737Z" transform="translate(-201.511 -229.965)" fill="#1ac7cf"/>
    <path id="Path_2750" data-name="Path 2750" d="M234.384,345.09h-4.765a.891.891,0,0,0,0,1.781h4.765A.891.891,0,0,0,234.384,345.09Z" transform="translate(-201.511 -304.108)" fill="#1ac7cf"/>
    <path id="Path_2751" data-name="Path 2751" d="M218.017,303.023h-9.863a.891.891,0,0,0,0,1.781h9.863A.891.891,0,0,0,218.017,303.023Z" transform="translate(-182.595 -267.037)" fill="#1ac7cf"/>
    <path id="Path_2752" data-name="Path 2752" d="M335.48,39.856a3.841,3.841,0,0,0-3.883,3.8.891.891,0,0,0,1.781,0,2.068,2.068,0,0,1,2.065-2.023,2.023,2.023,0,0,1-.042,4.046.891.891,0,0,0-.891.891V49.62a.891.891,0,0,0,1.781,0V47.357a3.8,3.8,0,0,0-.813-7.5Z" transform="translate(-292.14 -35.122)" fill="#1ac7cf"/>
    <path id="Path_2753" data-name="Path 2753" d="M357.248,140.331a.891.891,0,0,0,0,1.781A.891.891,0,0,0,357.248,140.331Z" transform="translate(-313.987 -123.666)" fill="#1ac7cf"/>
  </g>
</svg>
