<svg xmlns="http://www.w3.org/2000/svg" width="50.688" height="60.825" viewBox="0 0 50.688 60.825">
  <g id="document" transform="translate(-40)">
    <g id="Group_2894" data-name="Group 2894" transform="translate(52.165 43.591)">
      <g id="Group_2893" data-name="Group 2893" transform="translate(0)">
        <path id="Path_2754" data-name="Path 2754" d="M139.041,344h-2.027a1.014,1.014,0,1,0,0,2.028h2.027a1.014,1.014,0,1,0,0-2.028Z" transform="translate(-136 -344)" fill="#1ac7cf"/>
      </g>
    </g>
    <g id="Group_2896" data-name="Group 2896" transform="translate(58.248 43.591)">
      <g id="Group_2895" data-name="Group 2895" transform="translate(0)">
        <path id="Path_2755" data-name="Path 2755" d="M209.344,344h-24.33a1.014,1.014,0,0,0,0,2.028h24.33a1.014,1.014,0,1,0,0-2.028Z" transform="translate(-184 -344)" fill="#1ac7cf"/>
      </g>
    </g>
    <g id="Group_2898" data-name="Group 2898" transform="translate(52.165 37.509)">
      <g id="Group_2897" data-name="Group 2897" transform="translate(0)">
        <path id="Path_2756" data-name="Path 2756" d="M139.041,296h-2.027a1.014,1.014,0,1,0,0,2.027h2.027a1.014,1.014,0,1,0,0-2.027Z" transform="translate(-136 -296)" fill="#1ac7cf"/>
      </g>
    </g>
    <g id="Group_2900" data-name="Group 2900" transform="translate(58.248 37.509)">
      <g id="Group_2899" data-name="Group 2899" transform="translate(0)">
        <path id="Path_2757" data-name="Path 2757" d="M209.344,296h-24.33a1.014,1.014,0,1,0,0,2.027h24.33a1.014,1.014,0,1,0,0-2.027Z" transform="translate(-184 -296)" fill="#1ac7cf"/>
      </g>
    </g>
    <g id="Group_2902" data-name="Group 2902" transform="translate(52.165 31.426)">
      <g id="Group_2901" data-name="Group 2901" transform="translate(0)">
        <path id="Path_2758" data-name="Path 2758" d="M139.041,248h-2.027a1.014,1.014,0,1,0,0,2.027h2.027a1.014,1.014,0,1,0,0-2.027Z" transform="translate(-136 -248)" fill="#1ac7cf"/>
      </g>
    </g>
    <g id="Group_2904" data-name="Group 2904" transform="translate(58.248 31.426)">
      <g id="Group_2903" data-name="Group 2903" transform="translate(0)">
        <path id="Path_2759" data-name="Path 2759" d="M209.344,248h-24.33a1.014,1.014,0,0,0,0,2.027h24.33a1.014,1.014,0,1,0,0-2.027Z" transform="translate(-184 -248)" fill="#1ac7cf"/>
      </g>
    </g>
    <g id="Group_2906" data-name="Group 2906" transform="translate(52.165 25.344)">
      <g id="Group_2905" data-name="Group 2905" transform="translate(0)">
        <path id="Path_2760" data-name="Path 2760" d="M139.041,200h-2.027a1.014,1.014,0,1,0,0,2.028h2.027a1.014,1.014,0,0,0,0-2.028Z" transform="translate(-136 -200)" fill="#1ac7cf"/>
      </g>
    </g>
    <g id="Group_2908" data-name="Group 2908" transform="translate(58.248 25.344)">
      <g id="Group_2907" data-name="Group 2907" transform="translate(0)">
        <path id="Path_2761" data-name="Path 2761" d="M209.344,200h-24.33a1.014,1.014,0,0,0,0,2.028h24.33a1.014,1.014,0,0,0,0-2.028Z" transform="translate(-184 -200)" fill="#1ac7cf"/>
      </g>
    </g>
    <g id="Group_2910" data-name="Group 2910" transform="translate(52.165 19.261)">
      <g id="Group_2909" data-name="Group 2909" transform="translate(0)">
        <path id="Path_2762" data-name="Path 2762" d="M139.041,152h-2.027a1.014,1.014,0,0,0,0,2.028h2.027a1.014,1.014,0,0,0,0-2.028Z" transform="translate(-136 -152)" fill="#1ac7cf"/>
      </g>
    </g>
    <g id="Group_2912" data-name="Group 2912" transform="translate(58.248 19.261)">
      <g id="Group_2911" data-name="Group 2911" transform="translate(0)">
        <path id="Path_2763" data-name="Path 2763" d="M209.344,152h-24.33a1.014,1.014,0,0,0,0,2.028h24.33a1.014,1.014,0,0,0,0-2.028Z" transform="translate(-184 -152)" fill="#1ac7cf"/>
      </g>
    </g>
    <g id="Group_2914" data-name="Group 2914" transform="translate(40)">
      <g id="Group_2913" data-name="Group 2913">
        <path id="Path_2764" data-name="Path 2764" d="M90.674,15.142a.958.958,0,0,0-.052-.261c-.011-.032-.019-.064-.033-.1a1.014,1.014,0,0,0-.2-.3L76.194.3a1.014,1.014,0,0,0-.3-.2C75.866.08,75.834.072,75.8.061A1.01,1.01,0,0,0,75.54.008C75.523.011,75.5,0,75.481,0H47.1a1.014,1.014,0,0,0-1.014,1.014V4.055H41.014A1.014,1.014,0,0,0,40,5.069V59.811a1.014,1.014,0,0,0,1.014,1.014H83.591a1.014,1.014,0,0,0,1.014-1.014V54.743h5.069a1.014,1.014,0,0,0,1.014-1.014V15.206C90.688,15.184,90.677,15.165,90.674,15.142ZM76.5,3.461,87.227,14.193H76.5ZM82.578,58.8H42.028V6.083h4.055V53.729A1.014,1.014,0,0,0,47.1,54.743H82.578Zm6.083-6.083H48.11V2.028H74.468V15.206a1.014,1.014,0,0,0,1.014,1.014H88.66Z" transform="translate(-40)" fill="#1ac7cf"/>
      </g>
    </g>
    <g id="Group_2916" data-name="Group 2916" transform="translate(52.165 9.124)">
      <g id="Group_2915" data-name="Group 2915" transform="translate(0)">
        <path id="Path_2765" data-name="Path 2765" d="M143.1,72h-6.083A1.014,1.014,0,0,0,136,73.014V79.1a1.014,1.014,0,0,0,1.014,1.014H143.1A1.014,1.014,0,0,0,144.11,79.1V73.014A1.014,1.014,0,0,0,143.1,72Zm-1.014,6.083h-4.055V74.027h4.055Z" transform="translate(-136 -72)" fill="#1ac7cf"/>
      </g>
    </g>
  </g>
</svg>
