<svg xmlns="http://www.w3.org/2000/svg" width="68.536" height="68.661" viewBox="0 0 68.536 68.661">
  <g id="handshake" transform="translate(-0.467 -0.001)">
    <g id="Group_2137" data-name="Group 2137" transform="translate(33.693 32.318)">
      <g id="Group_2136" data-name="Group 2136">
        <path id="Path_1423" data-name="Path 1423" d="M262.033,247.382l-9.322-5.728a1.029,1.029,0,0,0-.376-.138L249.416,241a1.006,1.006,0,0,0-.35,1.981l2.754.486,9.159,5.628a1.006,1.006,0,0,0,1.053-1.714Z" transform="translate(-248.236 -240.986)" fill="#1ac7cf"/>
      </g>
    </g>
    <g id="Group_2139" data-name="Group 2139" transform="translate(0.467 0.001)">
      <g id="Group_2138" data-name="Group 2138">
        <path id="Path_1424" data-name="Path 1424" d="M68.732,39.036a1.006,1.006,0,0,0-1.422-.048L63.232,42.8,44.546,24.362,68.684,1.741A1.006,1.006,0,0,0,67.309.273L42.407,23.61a1.016,1.016,0,0,0-.019,1.45l1.653,1.631-.528.466L32.466,26.2a1.008,1.008,0,0,0-.5.087L23.21,30.278c-.025-.007-.051-.013-.077-.018L18.1,29.372l.407-1.041a1.006,1.006,0,0,0-.563-1.3L1.847,20.593A1.006,1.006,0,0,0,1.1,22.461l15.168,6.067L7.329,51.37l-5.52-1.955a1.006,1.006,0,1,0-.672,1.9l6.438,2.28a1.015,1.015,0,0,0,1.273-.582l1.494-3.817,3.914,2.193-.432.7a4.223,4.223,0,0,0,4.9,6.235A4.221,4.221,0,0,0,24.2,61.7a4.222,4.222,0,0,0,5.479,3.382,4.222,4.222,0,0,0,7.771,1.581l.686-1.112.565.347a4.217,4.217,0,0,0,5.812-1.388,4.2,4.2,0,0,0,.615-2.465,4.172,4.172,0,0,0,.976.118,4.258,4.258,0,0,0,3.607-2.015,4.194,4.194,0,0,0,.618-2.465,4.173,4.173,0,0,0,.974.117,4.258,4.258,0,0,0,3.607-2.015,4.193,4.193,0,0,0,.617-2.466,4.223,4.223,0,0,0,3.194-7.706l-.689-.423,2.312-2.415,2.162,2.134a1.016,1.016,0,0,0,1.393.019l4.784-4.471A1.006,1.006,0,0,0,68.732,39.036ZM19.3,55.465a2.213,2.213,0,0,1-3.767-2.324L21.17,44.01a2.224,2.224,0,0,1,3.008-.744A2.289,2.289,0,0,1,24.9,46.4Zm5.479,3.38a2.213,2.213,0,1,1-3.767-2.324l4.507-7.305a2.224,2.224,0,0,1,3.008-.744,2.288,2.288,0,0,1,.72,3.129Zm5.479,3.38a2.213,2.213,0,0,1-3.046.721,2.234,2.234,0,0,1-.721-3.045l3.38-5.479a2.224,2.224,0,0,1,3.008-.744,2.289,2.289,0,0,1,.72,3.129Zm7.694-.21-2.216,3.591a2.213,2.213,0,0,1-3.767-2.324l2.254-3.652a2.224,2.224,0,0,1,3.008-.744A2.289,2.289,0,0,1,37.954,62.016Zm18.324-17.9L51.293,41.05a1.006,1.006,0,0,0-1.053,1.714l7.429,4.565A2.213,2.213,0,1,1,55.351,51.1l-7.967-4.9a1.006,1.006,0,0,0-1.053,1.714L52.47,51.69a2.213,2.213,0,1,1-2.317,3.771l-5.564-3.419a1.006,1.006,0,0,0-1.053,1.714l3.735,2.3a2.213,2.213,0,0,1-2.317,3.771s-3.285-2.017-3.316-2.031a1.006,1.006,0,0,0-.963,1.763l1.4.859a2.213,2.213,0,0,1-2.317,3.771l-.562-.345.473-.767a4.355,4.355,0,0,0,.515-3.311,4.159,4.159,0,0,0-4.342-3.177,4.36,4.36,0,0,0-.01-2.03,4.159,4.159,0,0,0-4.342-3.177,4.282,4.282,0,0,0-1.933-4.636,4.187,4.187,0,0,0-2.419-.571,4.211,4.211,0,0,0-7.678-3.217l-4.145,6.718L11.081,47.3l6.268-16.018,3.413.6a4.224,4.224,0,0,0,5.036,6.5L31.689,35.7a1.006,1.006,0,0,0-.834-1.831l-5.891,2.683a2.213,2.213,0,0,1-1.835-4.028l9.427-4.293L43.77,29.2q.043,0,.086,0a1.007,1.007,0,0,0,.666-.252l.955-.843L58.912,41.362Z" transform="translate(-0.467 -0.001)" fill="#1ac7cf"/>
      </g>
    </g>
  </g>
</svg>
