<svg xmlns="http://www.w3.org/2000/svg" width="27.68" height="20.011" viewBox="0 0 27.68 20.011">
  <g id="hand-shake_3_" data-name="hand-shake (3)" transform="translate(0 -68.657)">
    <path id="Path_2837" data-name="Path 2837" d="M27.68,71.139v8.379s-1.793.353-2.163.4a2.564,2.564,0,0,1-2.364-.386c-1.293-1.24-5.889-5.81-5.889-5.81a1.747,1.747,0,0,0-2.065-.106c-1.168.616-2.9,1.518-3.622,1.869a1.664,1.664,0,0,1-2.5-1.306,1.7,1.7,0,0,1,1.034-1.485c1.649-1,5.124-2.95,6.572-3.719.88-.468,1.514-.508,2.722.51,1.488,1.251,2.812,2.392,2.812,2.392a1.376,1.376,0,0,0,1.121.215C25.028,71.733,27.68,71.139,27.68,71.139ZM9.388,85.336a1.464,1.464,0,0,0-1.755-2.024,1.51,1.51,0,0,0-.319-1.491,1.545,1.545,0,0,0-1.477-.374,1.508,1.508,0,0,0-.32-1.488,1.668,1.668,0,0,0-2.335.061c-.683.655-1.12,1.842-.511,2.54s1.307.272,1.84.151c-.148.529-.592,1.02-.045,1.712s1.307.272,1.84.152c-.149.527-.573,1.068-.048,1.709s1.4.3,1.974.122c-.222.57-.7,1.184-.087,1.872s2.014.372,2.7-.283A1.637,1.637,0,0,0,11,85.682,1.559,1.559,0,0,0,9.388,85.336Zm12.529-4.359c-4.964-4.964-2.629-2.628-5.3-5.305a1.74,1.74,0,0,0-1.861-.335c-.743.326-1.7.769-2.419,1.108a3.991,3.991,0,0,1-1.627.541,2.76,2.76,0,0,1-1.458-5.108c1.1-.763,3.642-2.114,3.642-2.114a3.187,3.187,0,0,0-2.468-.98c-1.694,0-5.233,2.318-5.233,2.318a2.766,2.766,0,0,1-2.435.064L0,70.2v9.588s.788.228,1.5.517a3.153,3.153,0,0,1,.776-1.224,3.052,3.052,0,0,1,4.188-.03A2.643,2.643,0,0,1,7.12,80.23a2.675,2.675,0,0,1,1.134.691,2.638,2.638,0,0,1,.662,1.172,2.7,2.7,0,0,1,1.834,1.976,2.713,2.713,0,0,1,1.183.709,2.79,2.79,0,0,1,.732,2.417,0,0,0,0,1,0,0c.01.014.4.445.639.689a1.217,1.217,0,0,0,1.721-1.721c-.017-.017-1.707-1.785-1.571-1.922s2.289,2.1,2.329,2.146a1.216,1.216,0,0,0,1.72-1.72c-.023-.022-.12-.115-.156-.152,0,0-2.135-1.9-1.973-2.065s2.817,2.312,2.821,2.312a1.2,1.2,0,0,0,1.73-1.661c-.008-.025-2.021-2.129-1.864-2.287s2.151,1.891,2.155,1.895a1.217,1.217,0,1,0,1.72-1.722Z" fill="#9e9e9e"/>
  </g>
</svg>
