<svg xmlns="http://www.w3.org/2000/svg" width="70.064" height="67.38" viewBox="0 0 70.064 67.38">
  <g id="house_2_" data-name="house (2)" transform="translate(0 -6.435)">
    <g id="Group_2135" data-name="Group 2135" transform="translate(0 6.435)">
      <path id="Path_1422" data-name="Path 1422" d="M68.551,37.817h0L38.685,7.943a5.179,5.179,0,0,0-7.306,0L1.513,37.817a5.166,5.166,0,0,0,7.306,7.306l2.027-2.043V70.46A3.5,3.5,0,0,0,14.482,73.8H24.39a.834.834,0,0,0,.834-.834V56.732a9.808,9.808,0,0,1,19.616,0V72.979a.834.834,0,0,0,.834.834h9.891A3.5,3.5,0,0,0,59.2,70.477V43.08l2.043,2.043a5.166,5.166,0,0,0,7.306-7.306Zm-11,32.643a1.843,1.843,0,0,1-1.968,1.668H46.508v-15.4a11.476,11.476,0,0,0-22.952,0V72.145H14.49a1.843,1.843,0,0,1-1.968-1.668V41.412L35.04,18.893,57.559,41.412Zm9.833-26.521a3.5,3.5,0,0,1-4.946,0l-3.469-3.461L35.616,17.125a.834.834,0,0,0-1.176,0L11.088,40.478,7.626,43.939a3.5,3.5,0,0,1-4.946-4.946L32.53,9.127a3.511,3.511,0,0,1,4.946,0L67.341,38.993a3.5,3.5,0,0,1,.033,4.946Z" transform="translate(0 -6.435)" fill="#1ac7cf"/>
    </g>
  </g>
</svg>
