<svg id="house_4_" data-name="house (4)" xmlns="http://www.w3.org/2000/svg" width="71.051" height="71.051" viewBox="0 0 71.051 71.051">
  <g id="Group_2141" data-name="Group 2141" transform="translate(0 0)">
    <g id="Group_2140" data-name="Group 2140">
      <path id="Path_1425" data-name="Path 1425" d="M34.864,244.276a1.185,1.185,0,0,0,1.291-.257l19.3-19.3,19.29,19.3a1.184,1.184,0,0,0,2.021-.837V227.788a1.184,1.184,0,1,0-2.368,0v12.534l-18.1-18.108a1.228,1.228,0,0,0-1.681,0L36.5,240.324V226.6h5.921a1.185,1.185,0,0,0,1.184-1.184v-1.184h2.368v1.184a1.184,1.184,0,1,0,2.368,0v-2.368a1.185,1.185,0,0,0-1.184-1.184H42.423a1.185,1.185,0,0,0-1.184,1.184v1.184H35.318a1.185,1.185,0,0,0-1.184,1.184v17.763A1.186,1.186,0,0,0,34.864,244.276Z" transform="translate(-29.397 -191.078)" fill="#1ac7cf"/>
      <path id="Path_1426" data-name="Path 1426" d="M209.654,24.859c-.073,1.1-.117,2.281-.117,3.561,0,5.931,1.77,9.473,4.737,9.473,3.74,0,4.737-4.466,4.737-7.105a1.184,1.184,0,1,0-2.368,0c0,.047-.1,4.737-2.368,4.737-1.372,0-2.368-2.988-2.368-7.105,0-13.806,4.846-15.379,5-15.423a1.184,1.184,0,0,0-.494-2.316,4.948,4.948,0,0,0-2.128,1.157,2.38,2.38,0,0,1,.072-.61,2.368,2.368,0,1,1,3.472,2.664,1.184,1.184,0,0,0,1.184,2.051,4.751,4.751,0,1,0-6.548-1.915,20.3,20.3,0,0,0-2.494,7.776,11.66,11.66,0,1,1,5.285,3.639,1.184,1.184,0,0,0-.751,2.245,14.212,14.212,0,1,0-9.7-13.479A14.345,14.345,0,0,0,209.654,24.859Z" transform="translate(-176.38 0)" fill="#1ac7cf"/>
      <path id="Path_1427" data-name="Path 1427" d="M383.855,171.489l-12.3-12.3a1.184,1.184,0,0,0-1.674,1.674l11.952,11.952v4.247h-4.247l-.49-.49v-3.062a1.185,1.185,0,0,0-1.184-1.184h-1.184v-1.184a1.185,1.185,0,0,0-1.184-1.184h-3.061l-.491-.491v-3.061a1.185,1.185,0,0,0-1.184-1.184h-3.062l-.115-.115a1.184,1.184,0,1,0-1.674,1.674l.462.462a1.181,1.181,0,0,0,.837.347h2.368v2.367a1.182,1.182,0,0,0,.346.836l1.184,1.186a1.184,1.184,0,0,0,.838.347h2.368v1.184a1.185,1.185,0,0,0,1.184,1.184h1.184v2.368a1.181,1.181,0,0,0,.347.837l1.184,1.184a1.181,1.181,0,0,0,.837.347h5.921a1.185,1.185,0,0,0,1.184-1.184v-5.921A1.181,1.181,0,0,0,383.855,171.489Z" transform="translate(-313.151 -136.801)" fill="#1ac7cf"/>
      <path id="Path_1428" data-name="Path 1428" d="M205.984,375.467a1.185,1.185,0,0,0-1.184,1.184v9.473a1.185,1.185,0,0,0,1.184,1.184h7.105a1.185,1.185,0,0,0,1.184-1.184v-9.473a1.185,1.185,0,0,0-1.184-1.184Zm5.921,9.473h-4.737v-7.105h4.737Z" transform="translate(-176.38 -323.363)" fill="#1ac7cf"/>
      <path id="Path_1429" data-name="Path 1429" d="M69.867,333.252H56.841V328.4a5.931,5.931,0,0,0,4.737-5.8c0-.154-.067-15.394-5.921-15.394s-5.921,15.24-5.921,15.394a5.931,5.931,0,0,0,4.737,5.8v4.856H45V319.634a1.184,1.184,0,1,0-2.368,0v13.618H26.052V317.858a1.185,1.185,0,0,0-1.184-1.184H15.394a1.185,1.185,0,0,0-1.184,1.184v15.394H9.473V319.634a1.184,1.184,0,0,0-2.368,0v13.618H1.184a1.184,1.184,0,0,0,0,2.368H69.867a1.184,1.184,0,0,0,0-2.368Zm-46.183-8.289H22.5a1.184,1.184,0,1,0,0,2.368h1.184v5.921H16.579v-14.21h7.105Zm28.42-2.368c0-5.9,1.584-13.026,3.553-13.026s3.553,7.126,3.553,13.026a3.553,3.553,0,0,1-7.105,0Z" transform="translate(0 -264.57)" fill="#1ac7cf"/>
    </g>
  </g>
</svg>
