<svg xmlns="http://www.w3.org/2000/svg" width="56.742" height="60.824" viewBox="0 0 56.742 60.824">
  <g id="income" transform="translate(-17.183)">
    <path id="Path_2766" data-name="Path 2766" d="M73.032,272.532a.893.893,0,0,0-.893.893V297.55a1.646,1.646,0,0,1-1.645,1.644H49.471a1.646,1.646,0,0,1-1.644-1.644v-2.373a.893.893,0,0,0-1.786,0v2.373a3.407,3.407,0,0,0,.421,1.644h-27.2a.3.3,0,0,1-.3-.3V277.359a.893.893,0,0,0-1.786,0V298.9a2.085,2.085,0,0,0,2.083,2.083H70.494a3.434,3.434,0,0,0,3.43-3.43V273.425a.893.893,0,0,0-.893-.893Z" transform="translate(0 -240.156)" fill="#1ac7cf"/>
    <path id="Path_2767" data-name="Path 2767" d="M70.5,19.172h-8.63V11.955a.9.9,0,0,0-.262-.631L50.542.262A.9.9,0,0,0,49.911,0H19.267a2.085,2.085,0,0,0-2.083,2.083V33.632a.893.893,0,1,0,1.786,0V2.083a.3.3,0,0,1,.3-.3H49.018V9.574a3.277,3.277,0,0,0,3.273,3.273H60.08v6.324H49.472a3.434,3.434,0,0,0-3.43,3.43v.14H31.9a.893.893,0,1,0,0,1.786H46.042v6.064H31.9a.893.893,0,1,0,0,1.786H46.042V38.44H31.9a.893.893,0,1,0,0,1.786H46.042V46.29H31.9a.893.893,0,0,0,0,1.786H46.042v3.376a.893.893,0,1,0,1.786,0V22.6a1.646,1.646,0,0,1,1.644-1.644H70.5A1.646,1.646,0,0,1,72.14,22.6v7.1a.893.893,0,1,0,1.786,0V22.6a3.434,3.434,0,0,0-3.43-3.43ZM50.8,9.574V3.048l8.014,8.014H52.291A1.489,1.489,0,0,1,50.8,9.574Z" transform="translate(-0.001)" fill="#1ac7cf"/>
    <path id="Path_2768" data-name="Path 2768" d="M317.183,198.112a2.085,2.085,0,0,0-2.083-2.083H300.277a2.085,2.085,0,0,0-2.083,2.083v5.041a2.085,2.085,0,0,0,2.083,2.083H315.1a2.085,2.085,0,0,0,2.083-2.083Zm-1.785,5.04a.3.3,0,0,1-.3.3H300.277a.3.3,0,0,1-.3-.3v-5.041a.3.3,0,0,1,.3-.3H315.1a.3.3,0,0,1,.3.3Z" transform="translate(-247.628 -172.741)" fill="#1ac7cf"/>
    <path id="Path_2769" data-name="Path 2769" d="M298.194,307.847a2,2,0,0,0,1.993,1.993h1.7a2,2,0,0,0,1.993-1.993v-1.7a2,2,0,0,0-1.993-1.993h-1.7a2,2,0,0,0-1.993,1.993Zm1.785-1.7a.208.208,0,0,1,.208-.208h1.7a.208.208,0,0,1,.208.208v1.7a.208.208,0,0,1-.208.208h-1.7a.208.208,0,0,1-.208-.208Z" transform="translate(-247.628 -268.021)" fill="#1ac7cf"/>
    <path id="Path_2770" data-name="Path 2770" d="M359.868,306.148a2,2,0,0,0-1.993-1.993h-1.7a2,2,0,0,0-1.993,1.993v1.7a2,2,0,0,0,1.993,1.993h1.7a2,2,0,0,0,1.993-1.993Zm-1.786,1.7a.208.208,0,0,1-.208.208h-1.7a.208.208,0,0,1-.208-.208v-1.7a.208.208,0,0,1,.208-.208h1.7a.208.208,0,0,1,.208.208v1.7Z" transform="translate(-296.964 -268.022)" fill="#1ac7cf"/>
    <path id="Path_2771" data-name="Path 2771" d="M415.855,306.148a2,2,0,0,0-1.993-1.993h-1.7a2,2,0,0,0-1.993,1.993v1.7a2,2,0,0,0,1.993,1.993h1.7a2,2,0,0,0,1.993-1.993Zm-1.785,1.7a.208.208,0,0,1-.208.208h-1.7a.208.208,0,0,1-.208-.208v-1.7a.208.208,0,0,1,.208-.208h1.7a.208.208,0,0,1,.208.208Z" transform="translate(-346.3 -268.022)" fill="#1ac7cf"/>
    <path id="Path_2772" data-name="Path 2772" d="M298.194,369.118a2,2,0,0,0,1.993,1.993h1.7a2,2,0,0,0,1.993-1.993v-1.7a2,2,0,0,0-1.993-1.993h-1.7a2,2,0,0,0-1.993,1.993Zm1.785-1.7a.208.208,0,0,1,.208-.208h1.7a.208.208,0,0,1,.208.208v1.7a.208.208,0,0,1-.208.208h-1.7a.208.208,0,0,1-.208-.208Z" transform="translate(-247.628 -322.013)" fill="#1ac7cf"/>
    <path id="Path_2773" data-name="Path 2773" d="M359.868,367.418a2,2,0,0,0-1.993-1.993h-1.7a2,2,0,0,0-1.993,1.993v1.7a2,2,0,0,0,1.993,1.993h1.7a2,2,0,0,0,1.993-1.993Zm-1.786,1.7a.208.208,0,0,1-.208.208h-1.7a.208.208,0,0,1-.208-.208v-1.7a.208.208,0,0,1,.208-.208h1.7a.208.208,0,0,1,.208.208v1.7Z" transform="translate(-296.964 -322.013)" fill="#1ac7cf"/>
    <path id="Path_2774" data-name="Path 2774" d="M298.194,430.388a2,2,0,0,0,1.993,1.993h1.7a2,2,0,0,0,1.993-1.993v-1.7a2,2,0,0,0-1.993-1.993h-1.7a2,2,0,0,0-1.993,1.993Zm1.785-1.7a.208.208,0,0,1,.208-.208h1.7a.208.208,0,0,1,.208.208v1.7a.208.208,0,0,1-.208.208h-1.7a.208.208,0,0,1-.208-.208Z" transform="translate(-247.628 -376.005)" fill="#1ac7cf"/>
    <path id="Path_2775" data-name="Path 2775" d="M357.875,426.7h-1.7a2,2,0,0,0-1.993,1.993v1.7a2,2,0,0,0,1.993,1.993h1.7a2,2,0,0,0,1.993-1.993v-1.7A2,2,0,0,0,357.875,426.7Zm.208,3.693a.208.208,0,0,1-.208.208h-1.7a.208.208,0,0,1-.208-.208v-1.7a.208.208,0,0,1,.208-.208h1.7a.208.208,0,0,1,.208.208v1.7Z" transform="translate(-296.964 -376.006)" fill="#1ac7cf"/>
    <path id="Path_2776" data-name="Path 2776" d="M413.693,365.425h-1.363a2.164,2.164,0,0,0-2.162,2.162v8.642a2.164,2.164,0,0,0,2.162,2.162h1.363a2.164,2.164,0,0,0,2.162-2.162v-8.642A2.164,2.164,0,0,0,413.693,365.425Zm.376,10.8a.377.377,0,0,1-.376.376h-1.363a.377.377,0,0,1-.376-.376v-8.642a.377.377,0,0,1,.376-.376h1.363a.377.377,0,0,1,.376.376Z" transform="translate(-346.3 -322.013)" fill="#1ac7cf"/>
    <path id="Path_2777" data-name="Path 2777" d="M70.586,127.141h3.564a.893.893,0,1,0,0-1.786H70.586a.893.893,0,1,0,0,1.786Z" transform="translate(-46.272 -110.463)" fill="#1ac7cf"/>
    <path id="Path_2778" data-name="Path 2778" d="M134.4,127.141h17.182a.893.893,0,0,0,0-1.786H134.4a.893.893,0,0,0,0,1.786Z" transform="translate(-102.505 -110.463)" fill="#1ac7cf"/>
    <path id="Path_2779" data-name="Path 2779" d="M70.586,193.214h3.564a.893.893,0,1,0,0-1.786H70.586a.893.893,0,1,0,0,1.786Z" transform="translate(-46.272 -168.687)" fill="#1ac7cf"/>
    <path id="Path_2780" data-name="Path 2780" d="M70.586,259.288h3.564a.893.893,0,0,0,0-1.786H70.586a.893.893,0,0,0,0,1.786Z" transform="translate(-46.272 -226.911)" fill="#1ac7cf"/>
    <path id="Path_2781" data-name="Path 2781" d="M70.586,325.361h3.564a.893.893,0,1,0,0-1.786H70.586a.893.893,0,1,0,0,1.786Z" transform="translate(-46.272 -285.136)" fill="#1ac7cf"/>
    <path id="Path_2782" data-name="Path 2782" d="M70.586,391.435h3.564a.893.893,0,0,0,0-1.786H70.586a.893.893,0,1,0,0,1.786Z" transform="translate(-46.272 -343.361)" fill="#1ac7cf"/>
  </g>
</svg>
