<svg xmlns="http://www.w3.org/2000/svg" width="62.42" height="57.298" viewBox="0 0 62.42 57.298">
  <g id="key_3_" data-name="key (3)" transform="translate(0 -21.005)">
    <path id="Path_2709" data-name="Path 2709" d="M126,85.881a4.876,4.876,0,1,0,4.876-4.876A4.882,4.882,0,0,0,126,85.881Zm7.315,0a2.438,2.438,0,1,1-2.438-2.438A2.441,2.441,0,0,1,133.315,85.881Z" transform="translate(-110.639 -52.685)" fill="#1ac7cf"/>
    <path id="Path_2710" data-name="Path 2710" d="M66,33.2a12.193,12.193,0,0,0,23.368,4.876h22.471a1.217,1.217,0,0,0,.545-.129l7.315-3.657a1.219,1.219,0,0,0,.317-1.953L112.7,25.019a1.22,1.22,0,0,0-1.724,0l-2.8,2.8-2.8-2.8a1.22,1.22,0,0,0-1.724,0l-2.8,2.8-2.8-2.8a1.22,1.22,0,0,0-1.724,0l-3.3,3.3H89.368A12.193,12.193,0,0,0,66,33.2Zm21.39-3.251a1.219,1.219,0,0,0,1.149.813h5.013a1.219,1.219,0,0,0,.862-.357l2.8-2.8,2.8,2.8a1.22,1.22,0,0,0,1.724,0l2.8-2.8,2.8,2.8a1.22,1.22,0,0,0,1.724,0l2.8-2.8,5.257,5.257-5.544,2.772H88.539a1.219,1.219,0,0,0-1.149.813,9.753,9.753,0,1,1,0-6.5Z" transform="translate(-57.954)" fill="#1ac7cf"/>
    <ellipse id="Ellipse_103" data-name="Ellipse 103" cx="1.507" cy="1.13" rx="1.507" ry="1.13" transform="translate(46.275 66.23)" fill="#1ac7cf"/>
    <path id="Path_2711" data-name="Path 2711" d="M50.529,282.313l-6.978,4.631a4.9,4.9,0,0,0-4.241-2.486H33.374a2.432,2.432,0,0,1-1.611-.594l-.859-.755a12.215,12.215,0,0,0-16.107,0l-1.846,1.624-3.2,2.261v-.706a1.219,1.219,0,0,0-1.219-1.219H1.219A1.219,1.219,0,0,0,0,286.287v18.287a1.219,1.219,0,0,0,1.219,1.219H8.534a1.219,1.219,0,0,0,1.219-1.219v-3.048h3.833l21.04,4.243a1.22,1.22,0,0,0,.963-.213L44.1,299.3a1.219,1.219,0,1,0-1.445-1.964l-8.072,5.938-20.63-4.16a1.219,1.219,0,0,0-.241-.024H9.753v-9.108c5.208-3.685,4.314-2.932,6.655-5.04a9.772,9.772,0,0,1,12.886,0l.859.755a4.868,4.868,0,0,0,3.222,1.2h5.935a2.438,2.438,0,1,1,0,4.876H24.68a1.219,1.219,0,0,0,0,2.438H39.309a4.875,4.875,0,0,0,4.874-4.76l7.69-5.1a6.08,6.08,0,0,1,7.546.653l-7.933,5.835a1.219,1.219,0,1,0,1.445,1.964l8.992-6.614a1.219,1.219,0,0,0,.271-1.688,8.514,8.514,0,0,0-11.666-2.183ZM7.315,303.354H2.438V287.506H7.315Z" transform="translate(0 -227.489)" fill="#1ac7cf"/>
  </g>
</svg>
