<svg xmlns="http://www.w3.org/2000/svg" width="55.283" height="71.663" viewBox="0 0 55.283 71.663">
  <g id="paper" transform="translate(-10 -2)">
    <path id="Path_1430" data-name="Path 1430" d="M64.259,73.663H11.024A1.024,1.024,0,0,1,10,72.639V3.024A1.024,1.024,0,0,1,11.024,2H64.259a1.024,1.024,0,0,1,1.024,1.024V72.639A1.024,1.024,0,0,1,64.259,73.663ZM12.048,71.615H63.235V4.048H12.048Z" fill="#1ac7cf"/>
    <path id="Path_1431" data-name="Path 1431" d="M28.588,23.949H18.736A2.048,2.048,0,0,1,16.688,21.9V12.048A2.048,2.048,0,0,1,18.736,10h9.853a2.048,2.048,0,0,1,2.048,2.048V21.9A2.048,2.048,0,0,1,28.588,23.949Zm-9.853-11.9V21.9h9.853V12.048Z" transform="translate(0.159 0.19)" fill="#1ac7cf"/>
    <path id="Path_1432" data-name="Path 1432" d="M28.588,44.136H18.736a2.048,2.048,0,0,1-2.048-2.048V32.236a2.048,2.048,0,0,1,2.048-2.048h9.853a2.048,2.048,0,0,1,2.048,2.048v9.853A2.048,2.048,0,0,1,28.588,44.136Zm-9.853-11.9v9.853h9.853V32.236Z" transform="translate(0.159 0.67)" fill="#1ac7cf"/>
    <path id="Path_1433" data-name="Path 1433" d="M28.588,64.324H18.736a2.048,2.048,0,0,1-2.048-2.048V52.423a2.048,2.048,0,0,1,2.048-2.048h9.853a2.048,2.048,0,0,1,2.048,2.048v9.854A2.048,2.048,0,0,1,28.588,64.324Zm-9.853-11.9v9.854h9.853V52.423Z" transform="translate(0.159 1.149)" fill="#1ac7cf"/>
    <path id="Path_1434" data-name="Path 1434" d="M56.835,15.069h-21.5a1.024,1.024,0,0,1,0-2.048h21.5a1.024,1.024,0,1,1,0,2.048Z" transform="translate(0.577 0.262)" fill="#1ac7cf"/>
    <path id="Path_1435" data-name="Path 1435" d="M48.645,20.648H35.336a1.024,1.024,0,0,1,0-2.048H48.645a1.024,1.024,0,0,1,0,2.048Z" transform="translate(0.577 0.394)" fill="#1ac7cf"/>
    <path id="Path_1436" data-name="Path 1436" d="M56.835,35.256h-21.5a1.024,1.024,0,1,1,0-2.048h21.5a1.024,1.024,0,1,1,0,2.048Z" transform="translate(0.577 0.741)" fill="#1ac7cf"/>
    <path id="Path_1437" data-name="Path 1437" d="M48.645,40.84H35.336a1.024,1.024,0,0,1,0-2.048H48.645a1.024,1.024,0,0,1,0,2.048Z" transform="translate(0.577 0.874)" fill="#1ac7cf"/>
    <path id="Path_1438" data-name="Path 1438" d="M56.835,55.448h-21.5a1.024,1.024,0,0,1,0-2.048h21.5a1.024,1.024,0,1,1,0,2.048Z" transform="translate(0.577 1.221)" fill="#1ac7cf"/>
    <path id="Path_1439" data-name="Path 1439" d="M48.645,61.027H35.336a1.024,1.024,0,0,1,0-2.048H48.645a1.024,1.024,0,0,1,0,2.048Z" transform="translate(0.577 1.353)" fill="#1ac7cf"/>
  </g>
</svg>
