<svg xmlns="http://www.w3.org/2000/svg" width="60.005" height="60.001" viewBox="0 0 60.005 60.001">
  <g id="real_estate" data-name="real estate" transform="translate(-2 -2)">
    <path id="Path_2666" data-name="Path 2666" d="M60.718,36.9a3.623,3.623,0,0,0-1.221-.654l2.4-4.8A1,1,0,0,0,61,30H51V11a1,1,0,0,0-1-1H31V3a1,1,0,0,0-1-1H14a1,1,0,0,0-1,1V30H3a1,1,0,0,0-.895,1.447L5.382,38H3a1,1,0,0,0-1,1V59a1,1,0,0,0,.617.924A.987.987,0,0,0,3,60a1,1,0,0,0,.707-.293L8.615,54.8a2.972,2.972,0,0,0,5.043-.437l17.954,7.56a1,1,0,0,0,.956-.1L60.445,42.6a3.582,3.582,0,0,0,.273-5.7ZM49,12V30H31V12ZM15,4H29V30H15ZM4.618,32H59.382l-2.167,4.334c-.545.222-1.649.687-3.926,1.666H29.751l-7.28-3.883a1,1,0,0,0-.877-.031l-7.947,3.532A2.979,2.979,0,0,0,8.184,38H7.618ZM37.471,42.117,33.5,40H48.659C45.982,41.16,42.508,42.669,38,44.633V43A1,1,0,0,0,37.471,42.117ZM4,40H8V52.586l-4,4Zm8,13a1,1,0,0,1-2,0V39a1,1,0,0,1,2,0ZM59.312,40.946,31.883,59.866,14,52.336V39.65l7.96-3.538L36,43.6V45a1,1,0,0,1-1,1H22v2H35a2.97,2.97,0,0,0,1.921-.715c8.214-3.579,20.516-8.921,21.32-9.218a1.583,1.583,0,0,1,1.2.367A1.544,1.544,0,0,1,60,39.65a1.592,1.592,0,0,1-.688,1.3Z" fill="#1ac7cf"/>
    <path id="Path_2667" data-name="Path 2667" d="M45,14h2v2H45Z" fill="#1ac7cf"/>
    <path id="Path_2668" data-name="Path 2668" d="M45,18h2v2H45Z" fill="#1ac7cf"/>
    <path id="Path_2669" data-name="Path 2669" d="M45,22h2v2H45Z" fill="#1ac7cf"/>
    <path id="Path_2670" data-name="Path 2670" d="M45,26h2v2H45Z" fill="#1ac7cf"/>
    <path id="Path_2671" data-name="Path 2671" d="M41,14h2v2H41Z" fill="#1ac7cf"/>
    <path id="Path_2672" data-name="Path 2672" d="M37,14h2v2H37Z" fill="#1ac7cf"/>
    <path id="Path_2673" data-name="Path 2673" d="M33,14h2v2H33Z" fill="#1ac7cf"/>
    <path id="Path_2674" data-name="Path 2674" d="M41,18h2v2H41Z" fill="#1ac7cf"/>
    <path id="Path_2675" data-name="Path 2675" d="M37,18h2v2H37Z" fill="#1ac7cf"/>
    <path id="Path_2676" data-name="Path 2676" d="M33,18h2v2H33Z" fill="#1ac7cf"/>
    <path id="Path_2677" data-name="Path 2677" d="M41,22h2v2H41Z" fill="#1ac7cf"/>
    <path id="Path_2678" data-name="Path 2678" d="M37,22h2v2H37Z" fill="#1ac7cf"/>
    <path id="Path_2679" data-name="Path 2679" d="M33,22h2v2H33Z" fill="#1ac7cf"/>
    <path id="Path_2680" data-name="Path 2680" d="M41,26h2v2H41Z" fill="#1ac7cf"/>
    <path id="Path_2681" data-name="Path 2681" d="M37,26h2v2H37Z" fill="#1ac7cf"/>
    <path id="Path_2682" data-name="Path 2682" d="M33,26h2v2H33Z" fill="#1ac7cf"/>
    <path id="Path_2683" data-name="Path 2683" d="M25,14h2v2H25Z" fill="#1ac7cf"/>
    <path id="Path_2684" data-name="Path 2684" d="M21,14h2v2H21Z" fill="#1ac7cf"/>
    <path id="Path_2685" data-name="Path 2685" d="M17,14h2v2H17Z" fill="#1ac7cf"/>
    <path id="Path_2686" data-name="Path 2686" d="M25,10h2v2H25Z" fill="#1ac7cf"/>
    <path id="Path_2687" data-name="Path 2687" d="M21,10h2v2H21Z" fill="#1ac7cf"/>
    <path id="Path_2688" data-name="Path 2688" d="M17,10h2v2H17Z" fill="#1ac7cf"/>
    <path id="Path_2689" data-name="Path 2689" d="M25,6h2V8H25Z" fill="#1ac7cf"/>
    <path id="Path_2690" data-name="Path 2690" d="M21,6h2V8H21Z" fill="#1ac7cf"/>
    <path id="Path_2691" data-name="Path 2691" d="M17,6h2V8H17Z" fill="#1ac7cf"/>
    <path id="Path_2692" data-name="Path 2692" d="M25,18h2v2H25Z" fill="#1ac7cf"/>
    <path id="Path_2693" data-name="Path 2693" d="M21,18h2v2H21Z" fill="#1ac7cf"/>
    <path id="Path_2694" data-name="Path 2694" d="M17,18h2v2H17Z" fill="#1ac7cf"/>
    <path id="Path_2695" data-name="Path 2695" d="M25,22h2v2H25Z" fill="#1ac7cf"/>
    <path id="Path_2696" data-name="Path 2696" d="M21,22h2v2H21Z" fill="#1ac7cf"/>
    <path id="Path_2697" data-name="Path 2697" d="M17,22h2v2H17Z" fill="#1ac7cf"/>
    <path id="Path_2698" data-name="Path 2698" d="M25,26h2v2H25Z" fill="#1ac7cf"/>
    <path id="Path_2699" data-name="Path 2699" d="M21,26h2v2H21Z" fill="#1ac7cf"/>
    <path id="Path_2700" data-name="Path 2700" d="M17,26h2v2H17Z" fill="#1ac7cf"/>
  </g>
</svg>
