<svg id="video-calling" xmlns="http://www.w3.org/2000/svg" width="24" height="24" viewBox="0 0 24 24">
  <path id="Path_2838" data-name="Path 2838" d="M12,13.76A5.438,5.438,0,0,0,13.5,10v4.66a4.709,4.709,0,0,0-1.25-.16H12Z" fill="#9e9e9e"/>
  <path id="Path_2839" data-name="Path 2839" d="M24,2V17a2.006,2.006,0,0,1-2,2H17.44a5.021,5.021,0,0,0-.45-1.5h4.26a1.25,1.25,0,0,0,1.25-1.25V2.75A1.25,1.25,0,0,0,21.25,1.5a.248.248,0,0,0-.25.25A1.758,1.758,0,0,1,19.25,3.5h-2.5A1.758,1.758,0,0,1,15,1.75a.248.248,0,0,0-.25-.25A1.25,1.25,0,0,0,13.5,2.75V10A5.481,5.481,0,0,0,12,6.23V2a2.006,2.006,0,0,1,2-2h8A2.006,2.006,0,0,1,24,2Z" fill="#9e9e9e"/>
  <path id="Path_2840" data-name="Path 2840" d="M18,9a1.5,1.5,0,1,1,1.5-1.5A1.5,1.5,0,0,1,18,9Z" fill="#9e9e9e"/>
  <path id="Path_2841" data-name="Path 2841" d="M20.25,13h-4.5a.75.75,0,0,1-.75-.75A2.252,2.252,0,0,1,17.25,10h1.5A2.252,2.252,0,0,1,21,12.25.75.75,0,0,1,20.25,13Z" fill="#9e9e9e"/>
  <path id="Path_2842" data-name="Path 2842" d="M8,14a4,4,0,1,1,4-4A4,4,0,0,1,8,14Z" fill="#9e9e9e"/>
  <path id="Path_2843" data-name="Path 2843" d="M15.25,24H.75A.75.75,0,0,1,0,23.25v-3.5A3.754,3.754,0,0,1,3.75,16h8.5A3.754,3.754,0,0,1,16,19.75v3.5A.75.75,0,0,1,15.25,24Z" fill="#9e9e9e"/>
</svg>
